<svg width="23" height="23" viewBox="0 0 23 23" fill="none" xmlns="http://www.w3.org/2000/svg">
<path d="M11.3915 0.167725C5.09826 0.167725 0.000978436 5.3938 0.000978436 11.8461C-0.000393053 14.2976 0.751159 16.6873 2.14902 18.6761C3.54689 20.665 5.52009 22.1522 7.78871 22.9266C8.35824 23.0282 8.57238 22.6778 8.57238 22.3707C8.57238 22.0939 8.55757 21.1748 8.55757 20.1961C5.69626 20.7369 4.95588 19.4814 4.72806 18.8239C4.59935 18.4876 4.04463 17.4517 3.56053 17.1738C3.16186 16.9554 2.59233 16.4147 3.54572 16.4007C4.4433 16.3855 5.08345 17.2474 5.29759 17.5977C6.32274 19.3635 7.95957 18.8672 8.61453 18.5612C8.71476 17.8021 9.0132 17.2917 9.34124 16.9998C6.80684 16.7078 4.15854 15.7 4.15854 11.233C4.15854 9.96238 4.59935 8.9125 5.32607 8.09384C5.21216 7.80188 4.81349 6.60485 5.43997 4.99907C5.43997 4.99907 6.39337 4.6931 8.57238 6.19727C9.49964 5.93341 10.4577 5.80061 11.42 5.80254C12.3882 5.80254 13.3564 5.93334 14.2677 6.19611C16.4467 4.67792 17.4001 5.00024 17.4001 5.00024C18.0266 6.60602 17.6279 7.80305 17.514 8.09501C18.2396 8.9125 18.6815 9.94837 18.6815 11.233C18.6815 15.7152 16.0195 16.7078 13.484 16.9998C13.8975 17.3641 14.254 18.0648 14.254 19.1603C14.254 20.7217 14.2392 21.9771 14.2392 22.3718C14.2392 22.6778 14.4533 23.0422 15.0229 22.9254C17.2837 22.1425 19.2482 20.6525 20.6399 18.665C22.0316 16.6776 22.7804 14.2927 22.781 11.8461C22.781 5.3938 17.6837 0.167725 11.3904 0.167725H11.3915Z" fill="white"/>
</svg>
