<svg width="24" height="24" viewBox="0 0 24 24" fill="none" xmlns="http://www.w3.org/2000/svg">
<path d="M12.8752 0.0014366C13.7271 -0.00183291 14.579 0.00673032 15.4307 0.0271236L15.6572 0.0352967C15.9187 0.0446374 16.1767 0.0563133 16.4884 0.0703244C17.7306 0.128704 18.5781 0.324859 19.3218 0.613253C20.0923 0.909821 20.7414 1.31147 21.3905 1.96065C21.984 2.54399 22.4433 3.24961 22.7366 4.02845C23.0249 4.77221 23.2211 5.62104 23.2794 6.86336C23.2934 7.17394 23.3051 7.43314 23.3145 7.69468L23.3215 7.92119C23.3422 8.77259 23.3512 9.62423 23.3483 10.4759L23.3495 11.3469V12.8764C23.3524 13.7285 23.3434 14.5805 23.3226 15.4323L23.3156 15.6588C23.3063 15.9203 23.2946 16.1784 23.2806 16.4901C23.2222 17.7324 23.0238 18.5801 22.7366 19.3239C22.4443 20.1035 21.9849 20.8097 21.3905 21.3928C20.8067 21.9863 20.1009 22.4457 19.3218 22.7391C18.5781 23.0275 17.7306 23.2236 16.4884 23.282C16.1767 23.296 15.9187 23.3077 15.6572 23.317L15.4307 23.324C14.5791 23.3448 13.7271 23.3537 12.8752 23.3509L12.0043 23.352H10.4761C9.62419 23.3549 8.77227 23.346 7.92059 23.3252L7.6941 23.3182C7.41697 23.3081 7.13989 23.2965 6.86289 23.2832C5.62073 23.2248 4.77317 23.0263 4.02834 22.7391C3.24929 22.4464 2.54364 21.9869 1.96081 21.3928C1.36663 20.8094 0.906869 20.1033 0.61358 19.3239C0.325222 18.5801 0.129092 17.7324 0.07072 16.4901C0.0577181 16.2131 0.0460436 15.936 0.0356968 15.6588L0.0298597 15.4323C0.00833632 14.5805 -0.00139339 13.7285 0.000673614 12.8764V10.4759C-0.00258467 9.62424 0.00597747 8.77259 0.0263574 7.92119L0.0345294 7.69468C0.043869 7.43314 0.0555433 7.17394 0.0695526 6.86336C0.127925 5.61987 0.324054 4.77337 0.612412 4.02845C0.905875 3.24923 1.36654 2.5438 1.96197 1.96182C2.5444 1.36723 3.24961 0.906987 4.02834 0.613253C4.77317 0.324859 5.61956 0.128704 6.86289 0.0703244L7.6941 0.0352967L7.92059 0.0294589C8.77187 0.00794355 9.6234 -0.0017874 10.4749 0.000269092L12.8752 0.0014366ZM11.6751 5.83938C10.9017 5.82844 10.1338 5.97135 9.41605 6.25979C8.69833 6.54824 8.04509 6.97647 7.49429 7.51961C6.94349 8.06274 6.50612 8.70994 6.20759 9.4236C5.90906 10.1373 5.75533 10.9031 5.75533 11.6767C5.75533 12.4503 5.90906 13.2162 6.20759 13.9299C6.50612 14.6435 6.94349 15.2907 7.49429 15.8339C8.04509 16.377 8.69833 16.8052 9.41605 17.0937C10.1338 17.3821 10.9017 17.525 11.6751 17.5141C13.2232 17.5141 14.7079 16.899 15.8026 15.8042C16.8973 14.7094 17.5123 13.2245 17.5123 11.6762C17.5123 10.1278 16.8973 8.64294 15.8026 7.54811C14.7079 6.45328 13.2232 5.83938 11.6751 5.83938ZM11.6751 8.17456C12.1403 8.16599 12.6026 8.25022 13.0349 8.42233C13.4672 8.59444 13.8609 8.85099 14.193 9.17699C14.5251 9.50298 14.7888 9.89189 14.9689 10.321C15.149 10.7501 15.2418 11.2108 15.2419 11.6761C15.242 12.1415 15.1493 12.6022 14.9694 13.0314C14.7894 13.4606 14.5258 13.8496 14.1938 14.1757C13.8619 14.5018 13.4683 14.7584 13.036 14.9307C12.6037 15.103 12.1415 15.1873 11.6762 15.1789C10.7474 15.1789 9.85654 14.8099 9.19973 14.153C8.54292 13.4961 8.17392 12.6052 8.17392 11.6762C8.17392 10.7472 8.54292 9.85622 9.19973 9.19933C9.85654 8.54243 10.7474 8.17339 11.6762 8.17339L11.6751 8.17456ZM17.8041 4.088C17.4275 4.10307 17.0713 4.26331 16.8102 4.53515C16.549 4.80699 16.4032 5.16934 16.4032 5.54632C16.4032 5.92329 16.549 6.28564 16.8102 6.55748C17.0713 6.82932 17.4275 6.98956 17.8041 7.00464C18.1912 7.00464 18.5623 6.85087 18.836 6.57716C19.1097 6.30345 19.2634 5.93223 19.2634 5.54515C19.2634 5.15807 19.1097 4.78684 18.836 4.51314C18.5623 4.23943 18.1912 4.08566 17.8041 4.08566V4.088Z" fill="white"/>
</svg>
