<svg width="24" height="24" viewBox="0 0 24 24" fill="none" xmlns="http://www.w3.org/2000/svg">
<path d="M0 1.8403C0 0.916441 0.767631 0.167725 1.71477 0.167725H21.6352C22.5824 0.167725 23.35 0.916441 23.35 1.8403V21.8469C23.35 22.7708 22.5824 23.5195 21.6352 23.5195H1.71477C0.767631 23.5195 0 22.7708 0 21.8469V1.8403ZM7.21369 19.7161V9.17129H3.70973V19.7161H7.21369ZM5.46244 7.73078C6.68394 7.73078 7.44427 6.92223 7.44427 5.90934C7.42238 4.87457 6.6854 4.0879 5.48579 4.0879C4.28618 4.0879 3.5025 4.87603 3.5025 5.90934C3.5025 6.92223 4.26283 7.73078 5.43909 7.73078H5.46244ZM12.6251 19.7161V13.8271C12.6251 13.5118 12.6484 13.1966 12.7418 12.9718C12.9943 12.3428 13.5707 11.6904 14.5398 11.6904C15.808 11.6904 16.3144 12.6565 16.3144 14.0752V19.7161H19.8183V13.668C19.8183 10.4279 18.0904 8.92172 15.7846 8.92172C13.9254 8.92172 13.0921 9.94336 12.6251 10.6629V10.6994H12.6017C12.6095 10.6872 12.6172 10.675 12.6251 10.6629V9.17129H9.12255C9.16633 10.1608 9.12255 19.7161 9.12255 19.7161H12.6251Z" fill="white"/>
</svg>
