<svg width="73" height="23" viewBox="0 0 73 23" fill="none" xmlns="http://www.w3.org/2000/svg">
<path d="M10.7599 0.181818H14.6804V15.5227C14.6733 16.929 14.375 18.1399 13.7855 19.1555C13.196 20.1641 12.3722 20.9418 11.3139 21.4886C10.2628 22.0284 9.03764 22.2983 7.63849 22.2983C6.36009 22.2983 5.20952 22.071 4.18679 21.6165C3.17116 21.1548 2.36506 20.473 1.76847 19.571C1.17188 18.669 0.87358 17.5469 0.87358 16.2045H4.80469C4.81179 16.794 4.93963 17.3018 5.18821 17.728C5.44389 18.1541 5.79545 18.4808 6.2429 18.7081C6.69034 18.9354 7.20526 19.049 7.78764 19.049C8.41974 19.049 8.95597 18.9176 9.39631 18.6548C9.83665 18.3849 10.1705 17.9872 10.3977 17.4616C10.6321 16.9361 10.7528 16.2898 10.7599 15.5227V0.181818ZM29.2276 15.1179V5.63636H33.0842V22H29.3448V19.0916H29.1744C28.805 20.0078 28.1978 20.7571 27.3526 21.3395C26.5146 21.9219 25.4812 22.2131 24.2525 22.2131C23.18 22.2131 22.2319 21.9751 21.408 21.4993C20.5913 21.0163 19.9521 20.3168 19.4904 19.4006C19.0288 18.4773 18.7979 17.3622 18.7979 16.0554V5.63636H22.6545V15.4588C22.6545 16.4957 22.9386 17.3196 23.5067 17.9304C24.0749 18.5412 24.8207 18.8466 25.744 18.8466C26.3121 18.8466 26.8626 18.7081 27.3952 18.4311C27.9279 18.1541 28.3647 17.7422 28.7056 17.1953C29.0536 16.6413 29.2276 15.9489 29.2276 15.1179ZM40.9064 12.4119V22H37.0499V5.63636H40.736V8.4169H40.9277C41.3042 7.50071 41.9043 6.77273 42.7282 6.23295C43.5591 5.69318 44.5854 5.4233 45.807 5.4233C46.9363 5.4233 47.9199 5.66477 48.758 6.14773C49.6032 6.63068 50.2566 7.33026 50.7182 8.24645C51.187 9.16264 51.4178 10.2741 51.4107 11.581V22H47.5542V12.1776C47.5542 11.0838 47.2701 10.228 46.7019 9.61008C46.1408 8.99219 45.3631 8.68324 44.3688 8.68324C43.6941 8.68324 43.0939 8.83239 42.5684 9.13068C42.0499 9.42187 41.6415 9.84446 41.3432 10.3984C41.052 10.9524 40.9064 11.6236 40.9064 12.4119ZM58.6017 0.181818V2.35511C58.6017 2.98011 58.481 3.62997 58.2395 4.30469C58.0051 4.9723 57.682 5.61151 57.2701 6.2223C56.8581 6.82599 56.3894 7.34446 55.8638 7.7777L54.074 6.61648C54.4647 6.02699 54.8056 5.39133 55.0968 4.70952C55.388 4.0206 55.5336 3.2429 55.5336 2.37642V0.181818H58.6017ZM72.5417 9.96165L69.0261 10.3452C68.9267 9.99006 68.7527 9.65625 68.5041 9.34375C68.2626 9.03125 67.9359 8.77912 67.524 8.58736C67.112 8.3956 66.6078 8.29972 66.0112 8.29972C65.2086 8.29972 64.5339 8.47372 63.987 8.82173C63.4473 9.16974 63.1809 9.62074 63.188 10.1747C63.1809 10.6506 63.3549 11.0376 63.71 11.3359C64.0723 11.6342 64.6689 11.8793 65.4998 12.071L68.291 12.6676C69.8393 13.0014 70.9899 13.5305 71.7427 14.255C72.5027 14.9794 72.8862 15.9276 72.8933 17.0994C72.8862 18.1293 72.5843 19.0384 71.9877 19.8267C71.3983 20.608 70.5779 21.2187 69.5268 21.6591C68.4757 22.0994 67.2683 22.3196 65.9047 22.3196C63.9018 22.3196 62.2896 21.9006 61.068 21.0625C59.8464 20.2173 59.1184 19.0419 58.8841 17.5362L62.6447 17.174C62.8152 17.9126 63.1774 18.4702 63.7314 18.8466C64.2853 19.223 65.0062 19.4112 65.894 19.4112C66.8102 19.4112 67.5453 19.223 68.0993 18.8466C68.6603 18.4702 68.9409 18.005 68.9409 17.451C68.9409 16.9822 68.7598 16.5952 68.3976 16.2898C68.0424 15.9844 67.4885 15.75 66.7356 15.5866L63.9444 15.0007C62.3748 14.674 61.2136 14.1236 60.4608 13.3494C59.7079 12.5682 59.335 11.581 59.3422 10.3878C59.335 9.37926 59.6085 8.50568 60.1625 7.76704C60.7235 7.02131 61.5012 6.44602 62.4956 6.04119C63.497 5.62926 64.6511 5.4233 65.9579 5.4233C67.8755 5.4233 69.3848 5.83168 70.4856 6.64844C71.5936 7.4652 72.2789 8.5696 72.5417 9.96165Z" fill="white"/>
</svg>
